<svg xmlns="http://www.w3.org/2000/svg" shape-rendering="geometricPrecision" text-rendering="geometricPrecision" image-rendering="optimizeQuality" fill-rule="evenodd" clip-rule="evenodd" viewBox="0 0 482 511.951"><path fill-rule="nonzero" d="M166.886 15.976c0-8.817 7.16-15.976 15.976-15.976s15.975 7.159 15.975 15.976v164.095c0 8.816-7.159 15.975-15.975 15.975H15.976C7.159 196.046 0 188.887 0 180.071c0-8.817 7.159-15.975 15.976-15.975h128.286L12.104 32.434c-6.233-6.199-6.26-16.291-.06-22.524 6.2-6.233 16.291-6.26 22.524-.06l132.318 131.822V15.976zm148.228 480c0 8.816-7.16 15.975-15.976 15.975s-15.975-7.159-15.975-15.975V331.881c0-8.817 7.159-15.976 15.975-15.976h166.886c8.817 0 15.976 7.159 15.976 15.976 0 8.816-7.159 15.975-15.976 15.975H337.738l132.158 131.661c6.233 6.2 6.26 16.291.06 22.524-6.2 6.233-16.291 6.26-22.524.06L315.114 370.279v125.697zm-31.951-480C283.163 7.159 290.322 0 299.138 0c8.816 0 15.976 7.159 15.976 15.976v125.696L447.432 9.85c6.233-6.2 16.324-6.173 22.524.06 6.2 6.233 6.173 16.325-.06 22.524L337.738 164.096h128.286c8.817 0 15.976 7.158 15.976 15.975 0 8.816-7.159 15.975-15.976 15.975H299.138c-8.816 0-15.975-7.159-15.975-15.975V15.976zm-84.326 480c0 8.816-7.159 15.975-15.975 15.975-8.816 0-15.976-7.159-15.976-15.975V370.279L34.568 502.101c-6.233 6.2-16.324 6.173-22.524-.06-6.2-6.233-6.173-16.324.06-22.524l132.158-131.661H15.976C7.159 347.856 0 340.697 0 331.881c0-8.817 7.159-15.976 15.976-15.976h166.886c8.816 0 15.975 7.159 15.975 15.976v164.095z"/></svg>